HIERARCHY
ROOT Hips
{
	OFFSET 0.000000 8.830580 0.000000
	CHANNELS 6 Xposition Yposition Zposition Zrotation Yrotation Xrotation 
	JOINT Spine
	{
		OFFSET 0.000000 0.010000 0.000000
		CHANNELS 3 Zrotation Yrotation Xrotation
		JOINT Spine1
		{
			OFFSET 0.000000 2.459130 0.000000
			CHANNELS 3 Zrotation Yrotation Xrotation
			JOINT Neck
			{
				OFFSET 0.000000 2.484630 0.000000
				CHANNELS 3 Zrotation Yrotation Xrotation
				JOINT Head_virtual
				{
					OFFSET 0.000000 0.000000 0.000000
					CHANNELS 3 Zrotation Yrotation Xrotation
					JOINT Head
					{
						OFFSET 0.000000 0.927525 0.000000
						CHANNELS 3 Zrotation Yrotation Xrotation
						End Site
						{
							OFFSET 0.000000 0.000000 0.000000
						}
					}
				}
				JOINT LeftUpArm_virtual
				{
					OFFSET 0.000000 0.000000 0.000000
					CHANNELS 3 Zrotation Yrotation Xrotation
					JOINT LeftUpArm
					{
						OFFSET 1.248820 0.000000 0.000000
						CHANNELS 3 Zrotation Yrotation Xrotation
						JOINT LeftForeArm
						{
							OFFSET 2.597580 0.000000 0.000000
							CHANNELS 3 Zrotation Yrotation Xrotation
							JOINT LeftHand
							{
								OFFSET 2.455420 0.000000 0.000000
								CHANNELS 3 Zrotation Yrotation Xrotation
								End Site
								{
									OFFSET 0.000000 0.000000 0.000000
								}
							}
						}
					}
				}
				JOINT RightUpArm_virtual
				{
					OFFSET -0.000000 -0.000000 -0.000000
					CHANNELS 3 Zrotation Yrotation Xrotation
					JOINT RightUpArm
					{
						OFFSET -1.248820 -0.000000 -0.000000
						CHANNELS 3 Zrotation Yrotation Xrotation
						JOINT RightForeArm
						{
							OFFSET -2.597580 -0.000000 -0.000000
							CHANNELS 3 Zrotation Yrotation Xrotation
							JOINT RightHand
							{
								OFFSET -2.455420 -0.000000 -0.000000
								CHANNELS 3 Zrotation Yrotation Xrotation
								End Site
								{
									OFFSET 0.000000 0.000000 0.000000
								}
							}
						}
					}
				}
			}
		}
	}
	JOINT LeftUpLeg
	{
		OFFSET 1.271939 0.000000 0.000000
		CHANNELS 3 Zrotation Yrotation Xrotation
		JOINT LeftLowLeg
		{
			OFFSET 0.000000 -4.342910 0.000000
			CHANNELS 3 Zrotation Yrotation Xrotation
			JOINT LeftFoot
			{
				OFFSET 0.000000 -4.487670 0.000000
				CHANNELS 3 Zrotation Yrotation Xrotation
				JOINT LeftToeBase
				{
					OFFSET 0.000000 0.000000 1.515070
					CHANNELS 3 Zrotation Yrotation Xrotation
					End Site
					{
						OFFSET 0.000000 0.000000 0.000000
					}
				}
			}
		}
	}
	JOINT RightUpLeg
	{
		OFFSET -1.271939 0.000000 0.000000
		CHANNELS 3 Zrotation Yrotation Xrotation
		JOINT RightLowLeg
		{
			OFFSET 0.000000 -4.342910 0.000000
			CHANNELS 3 Zrotation Yrotation Xrotation
			JOINT RightFoot
			{
				OFFSET 0.000000 -4.487670 0.000000
				CHANNELS 3 Zrotation Yrotation Xrotation
				JOINT RightToeBase
				{
					OFFSET 0.000000 0.000000 1.515070
					CHANNELS 3 Zrotation Yrotation Xrotation
					End Site
					{
						OFFSET 0.000000 0.000000 0.000000
					}
				}
			}
		}
	}
}
MOTION
Frames: 17
Frame Time: 0.041667
-13.068608 8.891023 33.018300 179.035379 2.420343 179.393978 4.233246 1.402577 -12.821807 -6.103408 2.913895 14.738286 0.000000 0.000000 0.000000 8.054480 5.376911 3.288864 -7.519601 -3.548967 -86.753461 -26.164000 4.026170 4.890991 -42.445202 -4.505220 14.841900 0.000000 -17.395201 0.000000 21.316000 16.556000 -2.685030 30.370501 -4.658230 1.123993 47.383400 1.422520 10.289000 0.000000 22.550100 0.000000 3.267060 -8.815730 -18.961700 -4.434338 -13.691299 -0.835644 0.000000 0.000000 14.076500 -17.028303 11.432880 -7.382580 0.000000 0.000000 -16.791910 3.377504 22.684481 -2.703851 0.000000 0.000000 19.829700 29.272480 -4.337395 -11.519541 0.000000 0.000000 -15.539931 
-13.075889 8.891122 33.020257 178.992807 1.786019 179.307729 4.284592 1.296842 -12.798334 -6.195804 2.783643 14.853029 0.000000 0.000000 0.000000 8.436492 5.233929 3.156680 -7.369113 -3.457475 -86.842659 -26.186300 3.633920 5.170013 -43.315102 -5.135930 11.195100 0.000000 -15.448600 0.000000 21.134199 18.042700 -4.497240 30.318399 -4.687190 0.933990 47.386501 1.463930 10.525600 0.000000 22.072399 0.000000 3.343770 -8.324050 -18.309700 -4.490613 -13.842106 -0.829159 0.000000 0.000000 14.063300 -16.779633 11.138089 -7.125999 0.000000 0.000000 -16.876520 3.382963 22.415111 -2.573528 0.000000 0.000000 19.893801 29.299739 -4.629557 -11.731315 0.000000 0.000000 -15.583002 
-13.084162 8.891340 33.019919 178.950537 1.069139 179.248166 4.312370 1.135559 -12.771950 -6.218556 2.608877 14.827320 0.000000 0.000000 0.000000 8.838144 4.999875 3.195704 -7.152000 -3.471389 -86.931539 -26.163099 3.409490 5.401001 -44.240898 -5.836630 7.728430 0.000000 -13.700700 0.000000 20.073601 19.493799 -6.756970 30.191601 -4.760020 0.897003 47.369598 1.532040 10.795800 0.000000 21.666000 0.000000 3.374210 -8.151970 -18.029499 -4.570484 -14.288038 -0.865047 0.000000 0.000000 14.125100 -16.725180 10.940163 -6.968761 0.000000 0.000000 -16.871410 3.348910 21.783652 -2.414916 0.000000 0.000000 19.867100 29.366674 -4.658867 -11.857242 0.000000 0.000000 -15.576750 
-13.091841 8.892615 33.018779 178.913757 0.393232 179.225714 4.305645 1.001239 -12.733677 -6.132820 2.479093 14.658526 0.000000 0.000000 0.000000 9.287036 4.602768 3.381345 -7.026478 -3.616985 -87.024742 -26.106100 3.202030 5.531006 -45.046799 -6.241510 5.638050 0.000000 -12.589200 0.000000 18.273300 20.982800 -8.544220 30.011700 -4.900860 0.816010 47.351601 1.467800 11.023000 0.000000 21.302000 0.000000 3.446430 -8.301790 -17.365000 -4.627736 -14.632419 -0.887814 0.000000 0.000000 14.098800 -16.667053 10.695706 -6.767407 0.000000 0.000000 -16.877190 3.303323 21.156328 -2.257134 0.000000 0.000000 19.757799 29.363324 -4.715579 -11.924654 0.000000 0.000000 -15.578220 
-13.098240 8.894010 33.017163 178.865897 -0.333767 179.237774 4.269966 0.822317 -12.709531 -6.015681 2.325214 14.447654 0.000000 0.000000 0.000000 9.588093 4.211701 3.556655 -6.942081 -3.836995 -87.102525 -26.032499 3.099260 5.398010 -45.788200 -6.364340 4.453290 0.000000 -12.002400 0.000000 15.993700 21.978100 -8.718810 29.870399 -4.992660 0.772003 47.272800 1.342690 11.105700 0.000000 21.033600 0.000000 3.574610 -8.687050 -17.033300 -4.661649 -14.780718 -0.883836 0.000000 0.000000 13.921000 -16.369496 10.357659 -6.410286 0.000000 0.000000 -16.968150 3.254845 20.586920 -2.125127 0.000000 0.000000 19.662001 29.394870 -4.832140 -12.040834 0.000000 0.000000 -15.593253 
-13.105035 8.895217 33.015245 178.856398 -0.969058 179.328781 4.216784 0.660165 -12.784663 -5.723444 2.249488 14.274033 0.000000 0.000000 0.000000 9.780435 3.764857 3.690053 -6.935992 -4.159488 -87.197740 -26.085199 3.009930 5.368988 -46.366501 -6.380630 3.984830 0.000000 -11.942600 0.000000 13.171600 22.153799 -8.812910 29.719601 -5.121230 0.695007 47.095402 1.266890 11.219800 0.000000 20.627100 0.000000 3.532110 -8.996260 -16.306101 -4.673490 -15.238422 -1.036548 0.000000 0.000000 13.956000 -16.363505 10.228529 -6.292193 0.000000 0.000000 -16.989210 3.184224 19.928001 -2.053700 0.000000 0.000000 19.483299 29.388800 -4.804599 -12.047464 0.000000 0.000000 -15.562826 
-13.110103 8.895979 33.012788 178.840959 -1.502508 179.499500 4.150063 0.521520 -12.914044 -5.442423 2.202019 14.079712 0.000000 0.000000 0.000000 9.910036 3.360222 3.751992 -6.928723 -4.468036 -87.280593 -26.213900 3.026580 5.390015 -46.725498 -6.277360 4.258090 0.000000 -12.410700 0.000000 10.040100 21.664101 -8.651380 29.599001 -5.181880 0.648010 46.898800 1.052680 11.194900 0.000000 20.317699 0.000000 3.304720 -8.627560 -15.711600 -4.639758 -15.435592 -1.233737 0.000000 0.000000 13.921100 -16.156940 10.007945 -6.090620 0.000000 0.000000 -17.044520 3.086088 19.345751 -2.101242 0.000000 0.000000 19.365000 29.410813 -4.720624 -12.056409 0.000000 0.000000 -15.569934 
-13.114811 8.896000 33.011103 178.839728 -1.908382 179.543228 4.163319 0.521397 -12.881943 -5.309685 2.191557 13.861742 0.000000 0.000000 0.000000 10.136739 2.946244 3.772876 -6.974763 -4.711894 -87.361457 -26.308500 3.071770 5.462006 -46.906601 -6.051110 5.406610 0.000000 -13.340200 0.000000 7.076710 20.354000 -7.731130 29.647301 -5.252120 0.651001 46.587700 0.917934 11.124400 0.000000 20.037901 0.000000 3.401260 -8.916060 -14.364300 -4.648579 -15.797987 -1.341282 0.000000 0.000000 14.009100 -16.118742 9.968726 -6.059317 0.000000 0.000000 -17.026630 3.041217 18.882277 -2.067062 0.000000 0.000000 19.319099 29.446483 -4.604017 -12.061000 0.000000 0.000000 -15.561386 
-13.117363 8.895939 33.008572 178.835365 -2.237267 179.646118 4.129753 0.508476 -12.934518 -5.141515 2.215185 13.690029 0.000000 0.000000 0.000000 10.316822 2.618559 3.785655 -6.986740 -4.915064 -87.476310 -26.462999 3.170480 5.489990 -46.924599 -5.773880 6.758560 0.000000 -14.472400 0.000000 4.170970 18.323900 -6.546090 29.715099 -5.278330 0.696014 46.254002 0.754516 11.031800 0.000000 19.838200 0.000000 3.247510 -8.791120 -15.635000 -4.619278 -15.915672 -1.463087 0.000000 0.000000 14.012400 -16.157340 9.746885 -6.000832 0.000000 0.000000 -17.009250 2.989268 18.517344 -2.087299 0.000000 0.000000 19.247400 29.526230 -4.478782 -12.079542 0.000000 0.000000 -15.503449 
-13.118310 8.895883 33.005184 178.824103 -2.474433 179.709760 4.056273 0.507393 -13.005118 -4.914032 2.300312 13.626392 0.000000 0.000000 0.000000 10.365369 2.401971 3.759706 -6.895300 -5.102082 -87.574251 -26.632500 3.265770 5.553009 -46.871899 -5.513250 8.146110 0.000000 -15.778600 0.000000 2.033510 16.065500 -3.991680 29.742300 -5.122070 0.614014 45.957001 0.372467 10.954000 0.000000 19.711100 0.000000 3.036750 -8.791840 -13.989100 -4.595104 -15.894008 -1.502888 0.000000 0.000000 13.951900 -16.005272 9.559606 -5.881861 0.000000 0.000000 -17.094220 2.956251 18.254309 -2.075669 0.000000 0.000000 19.191601 29.544562 -4.401060 -12.090889 0.000000 0.000000 -15.513862 
-13.118303 8.895966 33.001504 178.816767 -2.622371 179.715117 3.978168 0.540123 -13.024889 -4.721543 2.413487 13.609104 0.000000 0.000000 0.000000 10.427519 2.283725 3.740249 -6.732410 -5.208432 -87.708904 -26.743700 3.391240 5.578003 -46.842899 -5.330070 9.227090 0.000000 -16.995199 0.000000 0.497064 14.088500 -1.427790 29.738300 -5.411420 1.040009 45.728802 0.885325 10.934200 0.000000 19.444099 0.000000 3.005550 -8.905350 -13.817400 -4.594402 -16.000475 -1.517377 0.000000 0.000000 14.002100 -16.042724 9.479969 -5.890523 0.000000 0.000000 -17.090100 2.946325 18.051118 -2.018687 0.000000 0.000000 19.146700 29.498604 -4.333994 -12.071436 0.000000 0.000000 -15.518387 
-13.116404 8.896220 32.996916 178.798208 -2.743947 179.678606 3.877863 0.557173 -13.029827 -4.573199 2.514889 13.602653 0.000000 0.000000 0.000000 10.542079 2.185907 3.776076 -6.619356 -5.251981 -87.759708 -26.819000 3.524170 5.639008 -46.781200 -5.148040 10.256300 0.000000 -18.243500 0.000000 -0.244609 12.886400 0.497416 29.658600 -5.333300 0.998993 45.663101 0.759675 11.086000 0.000000 19.123301 0.000000 2.893560 -8.879230 -13.831200 -4.601433 -16.000117 -1.467917 0.000000 0.000000 14.022200 -16.272283 9.259361 -5.912104 0.000000 0.000000 -17.114650 2.956712 17.873028 -1.917114 0.000000 0.000000 19.108000 29.538272 -4.239620 -12.080354 0.000000 0.000000 -15.501390 
-13.112859 8.896654 32.993795 178.787722 -2.844302 179.638196 3.795776 0.594130 -13.007411 -4.525496 2.597583 13.561700 0.000000 0.000000 0.000000 10.730415 2.122763 3.922177 -6.543269 -5.227297 -87.773003 -26.842100 3.594310 5.684998 -46.718601 -4.986750 11.017900 0.000000 -19.206301 0.000000 -0.379894 12.482400 0.843674 29.568300 -5.189800 0.924988 45.700100 0.478655 11.162600 0.000000 18.993601 0.000000 2.796650 -8.957490 -13.583500 -4.574070 -16.011498 -1.455319 0.000000 0.000000 14.111600 -16.367234 9.043405 -5.941213 0.000000 0.000000 -17.159730 2.984336 17.740130 -1.849904 0.000000 0.000000 19.112700 29.482253 -4.228972 -12.073265 0.000000 0.000000 -15.573670 
-13.107384 8.897133 32.990326 178.779687 -2.903693 179.647238 3.702889 0.632432 -13.009106 -4.520618 2.671171 13.444381 0.000000 0.000000 0.000000 10.945805 2.098521 4.212064 -6.482568 -5.165571 -87.737250 -26.823900 3.700740 5.742004 -46.706299 -4.921710 11.441100 0.000000 -19.828300 0.000000 -0.036994 12.435600 0.945238 29.501900 -5.116540 0.977997 45.735199 0.356199 11.352100 0.000000 18.921499 0.000000 2.875250 -9.201800 -14.562500 -4.518618 -15.928226 -1.484217 0.000000 0.000000 14.182200 -16.672420 8.713807 -6.003041 0.000000 0.000000 -17.146700 3.008695 17.614853 -1.863788 0.000000 0.000000 19.169800 29.416237 -4.196241 -12.058410 0.000000 0.000000 -15.579185 
-13.100446 8.897325 32.986712 178.742927 -2.876782 179.748504 3.568600 0.695845 -13.084883 -4.523591 2.787894 13.276000 0.000000 0.000000 0.000000 11.237989 2.004604 4.584245 -6.520798 -5.103599 -87.608467 -26.809200 3.779390 5.924011 -46.659901 -5.010180 11.858500 0.000000 -20.091801 0.000000 0.855732 12.805200 -0.290932 29.319700 -5.056020 1.046997 45.970402 0.211126 11.512500 0.000000 18.900400 0.000000 2.836260 -9.357090 -14.480800 -4.463062 -15.824076 -1.608346 0.000000 0.000000 14.282500 -16.959891 8.415150 -6.108614 0.000000 0.000000 -17.265740 2.989736 17.661643 -1.996113 0.000000 0.000000 19.263399 29.341987 -4.225609 -12.099887 0.000000 0.000000 -15.659019 
-13.092762 8.897211 32.983546 178.720925 -2.839028 179.789746 3.457099 0.774906 -13.089518 -4.588584 2.888607 13.103044 0.000000 0.000000 0.000000 11.560670 1.952237 5.074772 -6.601806 -5.000175 -87.487715 -26.788099 3.825400 5.954987 -46.588600 -5.102300 12.280500 0.000000 -19.950500 0.000000 1.795950 13.006500 -0.897903 29.270901 -5.086510 0.843994 46.055801 -0.085900 12.004500 0.000000 19.098301 0.000000 2.808500 -9.340310 -13.442200 -4.413957 -15.796260 -1.691184 0.000000 0.000000 14.450300 -17.501874 8.117319 -6.394328 0.000000 0.000000 -17.402080 3.012706 17.770659 -2.085919 0.000000 0.000000 19.399700 29.335345 -4.228500 -12.200219 0.000000 0.000000 -15.732780 
-13.082571 8.896152 32.978943 178.699814 -2.808252 179.906123 3.332850 0.848061 -13.192171 -4.695616 2.986146 12.907428 0.000000 0.000000 0.000000 11.885187 1.908755 5.707993 -6.759679 -4.878890 -87.238203 -26.741400 3.806020 5.951996 -46.476200 -5.223960 12.852900 0.000000 -19.439301 0.000000 2.845340 13.107000 -1.943670 29.185900 -5.151300 0.648987 46.211700 -0.373868 12.641700 0.000000 19.348101 0.000000 2.915150 -9.359810 -13.526900 -4.316856 -15.773858 -1.876520 0.000000 0.000000 14.694100 -18.523618 7.550215 -6.875695 0.000000 0.000000 -17.227040 3.039039 17.948586 -2.297602 0.000000 0.000000 19.672899 29.310082 -4.234804 -12.421052 0.000000 0.000000 -15.757328 
